<svg width="25" height="24" viewBox="0 0 25 24" fill="none" xmlns="http://www.w3.org/2000/svg">
    <g clip-path="url(#clip0_1475_9539)">
        <path d="M13.5 -3L9.89252 1.87874C7.05735 5.71302 6.16888 10.6487 7.48898 15.231V15.231C8.93832 20.2619 7.71876 25.6845 4.25501 29.6105L-0.5 35" stroke="#C6916A" stroke-width="2"/>
        <path d="M0.184211 29L2.30009 23.7539C3.79375 20.0505 4.00467 15.9537 2.89921 12.1165V12.1165C1.20807 6.24628 2.6311 -0.0810845 6.67271 -4.66201L10.5 -9" stroke="#C6916A" stroke-width="2"/>
        <path d="M15.8428 11.3713L16.8008 15.2032C16.9321 15.7282 16.9484 16.2754 16.8486 16.8072L16.6935 17.6347C16.1945 20.296 18.915 22.4063 21.3687 21.2613C22.3865 20.7863 23.0958 19.8297 23.2546 18.7179L24.0707 13.0053C24.3314 11.1805 23.4844 9.37501 21.9145 8.40894L20.8135 7.73137C19.2565 6.77322 17.2181 7.25109 16.2491 8.80139C15.7704 9.56732 15.6237 10.495 15.8428 11.3713Z" stroke="#C6916A" stroke-width="2"/>
        <path d="M21 -2L17.8693 0.385259C13.4059 3.78595 11.4222 9.53498 12.8386 14.9646V14.9646C13.2757 16.6401 13.3962 18.3826 13.1938 20.1023L13.0814 21.058C12.7002 24.2982 11.4921 27.3858 9.57323 30.0243L4.5 37" stroke="#C6916A" stroke-width="2"/>
        <path d="M25 -2.5L24.2712 -0.313734C23.4799 2.06039 23.9609 4.67447 25.5456 6.61133V6.61133C26.7949 8.13824 27.3724 10.1061 27.1462 12.066L26.6539 16.3331C26.229 20.0151 24.6425 23.4661 22.1243 26.1857L13.5 35.5" stroke="#C6916A" stroke-width="2"/>
        <path d="M30 -2.5V-2.5C28.2288 -0.728777 27.8622 2.00879 29.1049 4.18364L29.8991 5.57349C30.6182 6.8319 30.9651 8.26869 30.8992 9.71657L30.6679 14.8056C30.5566 17.2554 30.0884 19.6759 29.2783 21.9906L28.6196 23.8724C27.5442 26.9453 26.0863 29.8706 24.2804 32.5794L22 36" stroke="#C6916A" stroke-width="2"/>
    </g>
    <defs>
        <clipPath id="clip0_1475_9539">
            <rect width="24" height="24" fill="white" transform="translate(0.5)"/>
        </clipPath>
    </defs>
</svg>
