<svg width="1392" height="2060" viewBox="0 0 1392 2060" fill="none" xmlns="http://www.w3.org/2000/svg">
    <path d="M554.893 399.492L824.649 433.215L472.662 1057.29M576.676 225.242L1107.49 291.599L662.257 1080.99M587.567 138.117L1248.9 220.791L757.056 1092.84M851.853 1104.69L1390.32 149.982L598.459 50.9913L-193.405 -47.9999M567.46 1069.14L966.067 362.407L565.784 312.367L165.501 262.328M757.054 1092.84L265.205 1964.89M662.254 1080.99L217.026 1870.38M851.852 1104.69L313.381 2059.4M567.457 1069.14L168.85 1775.87M472.663 1057.29L120.676 1681.36M285.139 365.77L554.894 399.492M45.867 158.884L576.677 225.241M-73.7705 55.4426L587.566 138.116" stroke="black" stroke-width="2" stroke-miterlimit="10"/>
</svg>
