<svg width="22" height="22" viewBox="0 0 22 22" fill="none" xmlns="http://www.w3.org/2000/svg">
    <path d="M0.570312 1.71139C0.570312 0.766219 1.33653 0 2.2817 0H20.2513C21.1965 0 21.9627 0.766216 21.9627 1.71139V19.681C21.9627 20.6262 21.1965 21.3924 20.2513 21.3924H2.28171C1.33653 21.3924 0.570312 20.6262 0.570312 19.681V1.71139Z" fill="#DD5044"/>
    <path d="M11.267 15.8304C14.1026 15.8304 16.4012 13.2449 16.4012 10.4093C16.4012 10.3334 16.3995 10.2579 16.3963 10.1828H14.8539H11.7804V11.723H14.6761C14.1993 13.1488 12.8532 14.2901 11.267 14.2901C9.28201 14.2901 7.67307 12.6812 7.67307 10.6962C7.67307 8.71121 9.28201 7.10226 11.267 7.10226C12.2615 7.10226 13.1617 7.50616 13.8123 8.15888L14.9014 7.06978C13.972 6.13832 12.6868 5.56201 11.267 5.56201C8.43141 5.56201 6.13281 7.86061 6.13281 10.6962C6.13281 13.5318 8.43141 15.8304 11.267 15.8304Z" fill="white"/>
</svg>
