<svg width="32" height="32" viewBox="0 0 32 32" fill="none" xmlns="http://www.w3.org/2000/svg">
    <g clip-path="url(#clip0_1508_13928)">
        <path d="M5.53115 24.3598V24.3598C1.13236 18.6854 2.16644 10.5195 7.84083 6.12072L8.236 5.81439C13.6922 1.58478 21.544 2.57909 25.7736 8.03524L26.6926 9.22075C30.4147 14.0222 29.5397 20.9318 24.7383 24.6538L24.3431 24.9602C19.7599 28.513 13.1644 27.6778 9.61151 23.0947L8.6925 21.9092C5.64718 17.9807 6.36309 12.3274 10.2915 9.28207L10.6867 8.97574C14.3969 6.09961 19.7361 6.77574 22.6123 10.4859L23.5313 11.6714C25.8998 14.7269 25.343 19.1239 22.2876 21.4925L21.8924 21.7988C19.0552 23.9982 14.9723 23.4812 12.7729 20.644L11.8539 19.4585C10.162 17.276 10.5597 14.1353 12.7422 12.4434L13.1374 12.1371C15.1016 10.6144 17.9282 10.9724 19.4509 12.9366L20.3699 14.1221C21.385 15.4316 21.1464 17.316 19.8369 18.3311L19.4417 18.6375C18.3505 19.4834 16.7801 19.2845 15.9342 18.1933V18.1933C15.0883 17.1021 15.2872 15.5317 16.3784 14.6858L16.7736 14.3794" stroke="#C6916A" stroke-width="2"/>
    </g>
    <defs>
        <clipPath id="clip0_1508_13928">
            <rect width="32" height="32" fill="white"/>
        </clipPath>
    </defs>
</svg>
