<svg width="64" height="64" viewBox="0 0 64 64" fill="none" xmlns="http://www.w3.org/2000/svg">
    <g clip-path="url(#clip0_2_3404)">
        <path d="M27.9763 45.8328L-13.4172 69.7314M27.9763 45.8328L27.9763 52.1589L38.3246 46.1844M27.9763 45.8328L17.8297 39.9746M-13.4172 69.7314L-29.0425 60.7101M-13.4172 69.7314L-13.4173 82.3836M-29.0425 60.7101L12.351 36.8115L17.8297 39.9746M-29.0425 60.7101L-29.0426 73.3623L-13.4173 82.3836M-13.4173 82.3836L27.9763 58.4849L38.3246 52.5103L38.3246 46.1844M38.3246 46.1844L22.6994 37.1631L17.8297 39.9746" stroke="#C6916A" stroke-width="4"/>
        <path d="M44.93 8.97441L86.3236 32.873M70.6983 41.8942L29.3047 17.9957L18.9565 12.0214M70.6983 41.8942L86.3236 32.873M70.6983 41.8942L70.6983 54.5465M86.3236 32.873L86.3236 45.5252L70.6983 54.5465M70.6983 54.5465L29.3047 30.6479L29.3047 24.3218L18.9565 18.3474L18.9565 12.0214M18.9565 12.0214L34.5804 3.00155L44.9286 8.97578" stroke="#C6916A" stroke-width="4"/>
        <path d="M64 17V49.7816M18.1333 63H0V43.4368" stroke="#C6916A" stroke-width="4" stroke-dasharray="6 3"/>
    </g>
    <defs>
        <clipPath id="clip0_2_3404">
            <rect width="64" height="64" fill="white"/>
        </clipPath>
    </defs>
</svg>
