<svg width="64" height="64" viewBox="0 0 64 64" fill="none" xmlns="http://www.w3.org/2000/svg">
    <g clip-path="url(#clip0_2_3375)">
        <path d="M9 34H33L37 81H5L9 34Z" stroke="#C6916A" stroke-width="4"/>
        <path d="M8.5 49H34" stroke="#C6916A" stroke-width="4"/>
        <path d="M8.5 57H34" stroke="#C6916A" stroke-width="4"/>
        <path d="M35 42H50.4286L53 72" stroke="#C6916A" stroke-width="4"/>
        <path d="M25.6292 29.5083C24.5833 28.9045 23.7263 28.0212 23.1544 26.9576C22.5824 25.894 22.3181 24.692 22.391 23.4866C22.464 22.2811 22.8713 21.1198 23.5673 20.1329C24.2633 19.146 25.2205 18.3725 26.3316 17.8992" stroke="#C6916A" stroke-width="4"/>
        <path d="M47.746 20.2591C46.4495 19.7824 45.3071 18.9898 44.4256 17.9553C43.544 16.9208 42.9519 15.678 42.7045 14.343C42.4572 13.008 42.5626 11.6243 43.0111 10.321C43.4595 9.01764 44.2363 7.83719 45.2689 6.88978" stroke="#C6916A" stroke-width="4"/>
        <path d="M19.0201 23.8274C17.5753 22.9932 16.3279 21.8565 15.3636 20.4952C14.3992 19.1339 13.7406 17.5801 13.433 15.9404C13.1253 14.3007 13.1758 12.6139 13.5811 10.9956C13.9864 9.37724 14.7368 7.86568 15.7809 6.56452C16.8251 5.26336 18.1382 4.20336 19.6303 3.4572C21.1225 2.71103 22.7583 2.29635 24.4257 2.24157C26.0931 2.1868 27.7527 2.49323 29.2906 3.13985C30.8284 3.78648 32.2083 4.758 33.3356 5.98783" stroke="#C6916A" stroke-width="4"/>
        <path d="M37.8584 33.8176C40.8225 34.2675 43.8527 33.755 46.5041 32.3556C49.1554 30.9561 51.2882 28.7434 52.5891 26.0424C53.89 23.3413 54.2906 20.2943 53.732 17.3488C53.1733 14.4033 51.685 11.7145 49.4854 9.67732" stroke="#C6916A" stroke-width="4"/>
        <path d="M29.053 24.293C30.5259 24.1628 31.9175 23.561 33.0211 22.5768C34.1247 21.5927 34.8813 20.2788 35.1786 18.8303C35.4759 17.3818 35.298 15.8761 34.6713 14.5368C34.0446 13.1975 33.0026 12.0962 31.7 11.3963" stroke="#C6916A" stroke-width="4"/>
        <path d="M52.053 36.293C53.0301 36.2066 53.9774 35.912 54.8312 35.429C55.685 34.946 56.4255 34.2858 57.0028 33.4928C57.5802 32.6997 57.981 31.7922 58.1784 30.8313C58.3758 29.8705 58.3651 28.8784 58.1471 27.922" stroke="#C6916A" stroke-width="4"/>
    </g>
    <defs>
        <clipPath id="clip0_2_3375">
            <rect width="64" height="64" fill="white"/>
        </clipPath>
    </defs>
</svg>
