<svg width="64" height="65" viewBox="0 0 64 65" fill="none" xmlns="http://www.w3.org/2000/svg">
    <circle cx="23.5" cy="24" r="19.5" stroke="#C6916A" stroke-width="4"/>
    <path d="M36 24C36 17.0964 30.4036 11.5 23.5 11.5" stroke="#C6916A" stroke-width="4"/>
    <path d="M34.8379 39.4556L45.0005 49.6182M39.9206 34.3729L50.0477 44.5M54.5005 48.9528L57.012 51.4643C57.793 52.2453 57.793 53.5116 57.012 54.2927L54.7577 56.547C53.9767 57.328 52.7103 57.328 51.9293 56.547L49.3823 54" stroke="#C6916A" stroke-width="4"/>
    <path d="M55.0974 45.5165L53.5106 43.9297C52.7295 43.1486 51.4632 43.1486 50.6821 43.9297L44.3947 50.2171C43.6136 50.9982 43.6136 52.2645 44.3947 53.0456L45.9815 54.6324C46.7626 55.4135 48.0289 55.4135 48.81 54.6324L55.0974 48.345C55.8785 47.5639 55.8785 46.2976 55.0974 45.5165Z" stroke="#C6916A" stroke-width="4"/>
</svg>
