<svg width="64" height="65" viewBox="0 0 64 65" fill="none" xmlns="http://www.w3.org/2000/svg">
    <g clip-path="url(#clip0_2_3358)">
        <path d="M18 22.5H61V62.5H18V22.5Z" stroke="#C6916A" stroke-width="4"/>
        <path d="M2 43.5H18V62.5H2V43.5Z" stroke="#C6916A" stroke-width="4"/>
        <path d="M30 43.5H51V62.5H30V43.5Z" stroke="#C6916A" stroke-width="4"/>
        <path d="M30 49.5H50.5" stroke="#C6916A" stroke-width="4"/>
        <path d="M18 32.5H61" stroke="#C6916A" stroke-width="4"/>
        <path d="M30 16.4561C30 8.74838 23.732 2.5 16 2.5C8.26801 2.5 2 8.74838 2 16.4561C2 22.393 6.96336 31.5568 10.9795 38" stroke="#C6916A" stroke-width="4"/>
        <path d="M24 17.5C24 13.0817 20.4183 9.5 16 9.5C11.5817 9.5 8 13.0817 8 17.5C8 20.6631 9.83576 23.3975 12.5 24.6958" stroke="#C6916A" stroke-width="4"/>
    </g>
    <defs>
        <clipPath id="clip0_2_3358">
            <rect width="64" height="64" fill="white" transform="translate(0 0.5)"/>
        </clipPath>
    </defs>
</svg>
