<svg width="32" height="32" viewBox="0 0 32 32" fill="none" xmlns="http://www.w3.org/2000/svg">
    <g clip-path="url(#clip0_1508_13775)">
        <path d="M13 -3L9.39252 1.87874C6.55735 5.71302 5.66888 10.6487 6.98898 15.231V15.231C8.43832 20.2619 7.21876 25.6845 3.75501 29.6105L-1 35" stroke="#C6916A" stroke-width="2"/>
        <path d="M-0.315789 29L1.80009 23.7539C3.29375 20.0505 3.50467 15.9537 2.39921 12.1165V12.1165C0.708069 6.24628 2.1311 -0.0810845 6.17271 -4.66201L10 -9" stroke="#C6916A" stroke-width="2"/>
        <path d="M15.3428 11.3713L16.3008 15.2032C16.4321 15.7282 16.4484 16.2754 16.3486 16.8072L16.1935 17.6347C15.6945 20.296 18.415 22.4063 20.8687 21.2613C21.8865 20.7863 22.5958 19.8297 22.7546 18.7179L23.5707 13.0053C23.8314 11.1805 22.9844 9.37501 21.4145 8.40894L20.3135 7.73137C18.7565 6.77322 16.7181 7.25109 15.7491 8.80139C15.2704 9.56732 15.1237 10.495 15.3428 11.3713Z" stroke="#C6916A" stroke-width="2"/>
        <path d="M20.5 -2L17.3693 0.385259C12.9059 3.78595 10.9222 9.53498 12.3386 14.9646V14.9646C12.7757 16.6401 12.8962 18.3826 12.6938 20.1023L12.5814 21.058C12.2002 24.2982 10.9921 27.3858 9.07323 30.0243L4 37" stroke="#C6916A" stroke-width="2"/>
        <path d="M24.5 -2.5L23.7712 -0.313734C22.9799 2.06039 23.4609 4.67447 25.0456 6.61133V6.61133C26.2949 8.13824 26.8724 10.1061 26.6462 12.066L26.1539 16.3331C25.729 20.0151 24.1425 23.4661 21.6243 26.1857L13 35.5" stroke="#C6916A" stroke-width="2"/>
        <path d="M29.5 -2.5V-2.5C27.7288 -0.728777 27.3622 2.00879 28.6049 4.18364L29.3991 5.57349C30.1182 6.8319 30.4651 8.26869 30.3992 9.71657L30.1679 14.8056C30.0566 17.2554 29.5884 19.6759 28.7783 21.9906L28.1196 23.8724C27.0442 26.9453 25.5863 29.8706 23.7804 32.5794L21.5 36" stroke="#C6916A" stroke-width="2"/>
    </g>
    <defs>
        <clipPath id="clip0_1508_13775">
            <rect width="32" height="32" fill="white"/>
        </clipPath>
    </defs>
</svg>
