<svg width="138" height="52" viewBox="0 0 138 52" fill="none" xmlns="http://www.w3.org/2000/svg">
    <path fill-rule="evenodd" clip-rule="evenodd" d="M28.6158 8.12017L25.2292 0L23.9922 0.501336L27.5438 9.01729C24.4331 11.8819 22.5423 16.0948 22.5423 21.0628C22.5423 30.4458 29.2865 37.135 38.2567 37.135C38.5952 37.135 38.929 37.1247 39.2578 37.1046L44.917 50.6738L26.5344 50.6812L13.53 19.5729L0 51.9382H1.68605L6.37877 40.5411H20.7725L25.3335 51.8382L25.3336 52.0001L46.9126 51.9915L40.6427 36.9578C48.3436 35.7863 53.0159 28.9661 53.0159 21.333H39.353H39.3364V22.684H51.3631C50.9432 29.0804 46.7556 34.7161 40.0706 35.5859L29.2107 9.54674C31.6181 7.56044 34.7369 6.42354 38.2484 6.42354C43.6222 6.42354 47.7252 9.06812 49.9096 12.6624L51.0973 11.7209C48.3647 7.68443 44.1288 4.99072 38.2567 4.99072C34.5594 4.99072 31.2403 6.12713 28.6158 8.12017ZM28.1656 10.5081C25.6388 13.0964 24.1287 16.763 24.1287 21.0628C24.1287 29.5451 30.0922 35.7021 38.2484 35.7021C38.39 35.7021 38.5307 35.7001 38.6704 35.6961L28.1656 10.5081ZM68.0893 36.775H66.5859L70.1408 4.40967L82.89 29.5945L95.6393 4.40967L99.1941 36.775H97.6908L94.7339 9.20756L82.89 32.5993L71.0461 9.20756L68.0893 36.775ZM117.328 25.3785H131.713L136.315 36.7838H138.001L124.479 4.41846L110.949 36.7838H112.635L117.328 25.3785ZM131.124 24.0276H117.826L124.471 7.86541L131.124 24.0276ZM6.87711 39.1902H20.1745L13.5217 23.028L6.87711 39.1902Z" fill="white"/>
</svg>
