<svg width="20" height="20" viewBox="0 0 20 20" fill="none" xmlns="http://www.w3.org/2000/svg">
    <mask id="path-1-inside-1_2_897" fill="white">
        <path d="M20 3V17H10H0V3H20Z"/>
    </mask>
    <path d="M10 11.4534L9.39652 12.2508L10 12.7075L10.6035 12.2508L10 11.4534ZM-0.658439 3.75263L6.84156 10.314L8.15844 8.8087L0.658439 2.24737L-0.658439 3.75263ZM6.89652 10.3587L9.39652 12.2508L10.6035 10.6561L8.10348 8.76396L6.89652 10.3587ZM0.704197 17.71L8.2042 10.2713L6.7958 8.85134L-0.704197 16.29L0.704197 17.71ZM19.3416 2.24737L11.8416 8.80871L13.1584 10.314L20.6584 3.75263L19.3416 2.24737ZM11.8965 8.76396L9.39652 10.6561L10.6035 12.2508L13.1035 10.3587L11.8965 8.76396ZM20.7042 16.29L13.2042 8.85134L11.7958 10.2713L19.2958 17.71L20.7042 16.29ZM20 3H22V1H20V3ZM20 17V19H22V17H20ZM0 17H-2V19H0V17ZM0 3V1H-2V3H0ZM18 3V17H22V3H18ZM2 17V3H-2V17H2ZM20 15H10V19H20V15ZM10 15H0V19H10V15ZM0 5H20V1H0V5Z" fill="black" mask="url(#path-1-inside-1_2_897)"/>
</svg>
