<svg xmlns="http://www.w3.org/2000/svg" display="none">

    <symbol id="instagram" viewBox="0 0 24 24">
        <path d="M1 7.75C1 4.02208 4.02208 1 7.75 1H16C19.7279 1 22.75 4.02208 22.75 7.75V16C22.75 19.7279 19.7279 22.75 16 22.75H7.75C4.02208 22.75 1 19.7279 1 16V7.75Z"
              stroke-width="2.25"/>
        <path d="M7 11.875C7 9.18261 9.18261 7 11.875 7C14.5674 7 16.75 9.18261 16.75 11.875C16.75 14.5674 14.5674 16.75 11.875 16.75C9.18261 16.75 7 14.5674 7 11.875Z"
              stroke-width="2.25"/>
    </symbol>

    <symbol id="phone" viewBox="0 0 18 19">
        <path d="M17.528 13.9441L15.0108 11.2926C14.1117 10.3456 12.5834 10.7244 12.2238 11.9554C11.9541 12.8077 11.0551 13.2812 10.246 13.0918C8.44795 12.6183 6.02061 10.1562 5.57111 8.16758C5.3014 7.31527 5.84081 6.36831 6.64992 6.08425C7.81864 5.70547 8.17825 4.09563 7.27923 3.14866L4.76199 0.497157C4.04278 -0.165719 2.96397 -0.165719 2.33466 0.497157L0.626529 2.29639C-1.0816 4.19032 0.806332 9.20924 5.0317 13.66C9.25706 18.1107 14.0218 20.1941 15.8199 18.3001L17.528 16.5009C18.1573 15.7433 18.1573 14.6069 17.528 13.9441Z"/>
    </symbol>

    <symbol id="burger" viewBox="0 0 20 16">
        <rect width="20" height="2"/>
        <rect y="7" width="20" height="2"/>
        <rect y="14" width="20" height="2"/>
    </symbol>

    <symbol id="search" viewBox="0 0 20 20">
        <path d="M14.1691 14.1691C11.1565 17.1817 6.27208 17.1817 3.25946 14.1691C0.246846 11.1565 0.246846 6.27208 3.25946 3.25946C6.27208 0.246846 11.1565 0.246846 14.1691 3.25946C17.1817 6.27208 17.1817 11.1565 14.1691 14.1691ZM14.1691 14.1691L19 19"
              stroke-width="2"/>
    </symbol>

    <symbol id="price" viewBox="0 0 25 24">
        <rect x="3.5" y="4" width="18" height="16" stroke-width="2"/>
        <path d="M2.5 10L22.5 10" stroke-width="2"/>
        <path d="M9.5 3L9.5 21" stroke-width="2"/>
    </symbol>

    <symbol id="pdf" viewBox="0 0 25 24">
        <path d="M4.5 3H20.5V13.5858L13.0858 21H4.5V3Z" stroke-width="2"/>
    </symbol>

    <symbol id="phone2" viewBox="0 0 20 20">
        <path d="M7.08121 6.88231L6.78291 7.40436L7.10411 7.91264C8.43193 10.0138 10.2343 11.9431 12.9998 13.166L13.6627 13.4592L14.1476 12.9204L14.7463 12.2551L14.0029 11.5862L14.7463 12.2551C15.3387 11.5968 16.2564 11.5487 16.8002 12.0268C17.6783 12.799 18.3687 13.6157 18.8937 14.6832C19.0255 14.9511 19.0303 15.2355 18.9323 15.4625C18.5137 16.4313 18.2199 16.8905 17.8666 17.2838C17.5893 17.5925 17.281 17.8604 16.8116 18.2685C16.6 18.4524 16.3557 18.6648 16.0666 18.9222C15.9788 19.0005 15.8574 19.0203 15.7539 18.9787C12.0222 17.4799 9.29152 15.9027 7.03018 13.7275C4.7661 11.5497 2.91455 8.71655 1.02802 4.61948C0.985445 4.52702 0.998223 4.44722 1.02116 4.4047C1.57949 3.36964 1.89174 2.89966 2.23972 2.53513C2.5922 2.16588 3.00834 1.87198 3.8777 1.25799C3.90489 1.23879 3.93251 1.21928 3.9606 1.19944C4.40566 0.885053 5.07687 0.933318 5.57239 1.42462C6.55463 2.39851 7.22701 3.14846 7.81327 3.93705C8.13013 4.36326 8.16349 4.98825 7.84931 5.53808L7.08121 6.88231Z"
              stroke-width="2"/>
    </symbol>

    <symbol id="arrow-right" viewBox="0 0 24 24">
        <path d="M14 21L22 12M22 12L14 3M22 12L-3.93403e-07 12" stroke-width="2"/>
    </symbol>

</svg>